<svg width="20" height="20" fill="none" xmlns="http://www.w3.org/2000/svg"><path d="M17.167 9.54h1.916c0-4.915-3.711-8.623-8.634-8.623v1.916c3.893 0 6.718 2.82 6.718 6.708z" fill="#BDBDBD"/><path d="M10.458 6.667c2.016 0 2.875.86 2.875 2.875h1.917c0-3.09-1.701-4.792-4.792-4.792v1.917zm3.28 5.216a.96.96 0 0 0-1.333.041l-2.294 2.359c-.552-.106-1.661-.452-2.804-1.591-1.142-1.143-1.488-2.256-1.59-2.804l2.356-2.295a.958.958 0 0 0 .041-1.333l-3.54-3.893a.958.958 0 0 0-1.334-.084L1.16 4.067a.958.958 0 0 0-.277.622c-.015.24-.289 5.915 4.112 10.317 3.839 3.838 8.648 4.12 9.972 4.12.194 0 .313-.007.344-.009a.95.95 0 0 0 .621-.279l1.783-2.08a.958.958 0 0 0-.083-1.333l-3.894-3.542z" fill="#BDBDBD"/></svg>